# Blender v2.79 (sub 0) OBJ File: 'cube.blend'
# www.blender.org
mtllib cube2.mtl
o Vitrine_Vitrine.001
v -1.000000 -1.000000 1.000000
v -1.000000 1.000000 1.000000
v -1.000000 -1.000000 -1.000000
v -1.000000 1.000000 -1.000000
v 1.000000 -1.000000 1.000000
v 1.000000 1.000000 1.000000
v 1.000000 -1.000000 -1.000000
v 1.000000 1.000000 -1.000000
v -0.942265 -0.942265 0.942265
v -0.942265 0.942265 0.942265
v -0.942265 -0.942265 -0.942265
v -0.942265 0.942265 -0.942265
v 0.942265 -0.942265 0.942265
v 0.942265 0.942265 0.942265
v 0.942265 -0.942265 -0.942265
v 0.942265 0.942265 -0.942265
vn -1.0000 0.0000 0.0000
vn 0.0000 0.0000 -1.0000
vn 1.0000 0.0000 0.0000
vn 0.0000 0.0000 1.0000
vn 0.0000 -1.0000 0.0000
vn 0.0000 1.0000 0.0000
usemtl None
s off
f 1//1 2//1 4//1 3//1
f 3//2 4//2 8//2 7//2
f 7//3 8//3 6//3 5//3
f 5//4 6//4 2//4 1//4
f 3//5 7//5 5//5 1//5
f 8//6 4//6 2//6 6//6
f 9//3 11//3 12//3 10//3
f 11//4 15//4 16//4 12//4
f 15//1 13//1 14//1 16//1
f 13//2 9//2 10//2 14//2
f 11//6 9//6 13//6 15//6
f 16//5 14//5 10//5 12//5
o Palissade_Palissade.001
v -0.942220 -0.941990 0.906410
v 0.906410 -0.941990 -0.942220
v -0.942220 0.941990 0.906410
v 0.906410 0.941990 -0.942220
v -0.942220 0.941990 0.906410
v -0.942220 -0.941990 0.906410
v 0.906410 -0.941990 -0.942220
v 0.906410 0.941990 -0.942220
v -0.906410 0.941990 0.942220
v -0.906410 -0.941990 0.942220
v 0.942220 -0.941990 -0.906410
v 0.942220 0.941990 -0.906410
vn -0.7071 0.0000 -0.7071
vn 0.0000 -1.0000 0.0000
vn 0.0000 0.0000 1.0000
vn 0.7071 0.0000 0.7071
vn 0.7071 0.0000 -0.7071
vn -0.7071 0.0000 0.7071
vn 0.0000 1.0000 0.0000
usemtl None
s off
f 17//7 19//7 20//7 18//7
f 22//8 23//8 27//8 26//8
f 20//9 19//9 21//9 24//9
f 17//9 18//9 23//9 22//9
f 18//9 20//9 24//9 23//9
f 19//9 17//9 22//9 21//9
f 26//10 27//10 28//10 25//10
f 23//11 24//11 28//11 27//11
f 21//12 22//12 26//12 25//12
f 24//13 21//13 25//13 28//13
o Cadre_Cadre.001
v -1.032024 -1.032024 1.032024
v -1.042589 -1.042589 1.042589
v -1.032024 1.032024 1.032024
v -1.042589 1.042589 1.042589
v -1.032024 -1.032024 -1.032024
v -1.042589 -1.042589 -1.042589
v -1.032024 1.032024 -1.032024
v -1.042589 1.042589 -1.042589
v 1.032024 -1.032024 1.032024
v 1.042589 -1.042589 1.042589
v 1.032024 1.032024 1.032024
v 1.042589 1.042589 1.042589
v 1.032024 -1.032024 -1.032024
v 1.042589 -1.042589 -1.042589
v 1.032024 1.032024 -1.032024
v 1.042589 1.042589 -1.042589
v -1.005044 -1.002356 1.002356
v -1.005044 1.002356 1.002356
v -1.005044 1.002356 -1.002356
v -1.005044 -1.002356 -1.002356
v -1.002356 -1.002356 -1.005044
v -1.002356 1.002356 -1.005044
v 1.002356 1.002356 -1.005044
v 1.002356 -1.002356 -1.005044
v 1.005044 -1.002356 -1.002356
v 1.005044 1.002356 -1.002356
v 1.005044 1.002356 1.002356
v 1.005044 -1.002356 1.002356
v 1.002356 -1.002356 1.005044
v 1.002356 1.002356 1.005044
v -1.002356 1.002356 1.005044
v -1.002356 -1.002356 1.005044
v -1.002356 -1.005044 -1.002356
v 1.002356 -1.005044 -1.002356
v 1.002356 -1.005044 1.002356
v -1.002356 -1.005044 1.002356
v 1.002356 1.005044 -1.002356
v -1.002356 1.005044 -1.002356
v -1.002356 1.005044 1.002356
v 1.002356 1.005044 1.002356
vn 0.7398 0.0000 0.6728
vn -0.7311 0.0000 -0.6823
vn 0.7398 0.6728 0.0000
vn -0.7311 -0.6823 0.0000
vn 0.7398 0.0000 -0.6728
vn -0.7311 0.0000 0.6823
vn 0.7398 -0.6728 0.0000
vn -0.7311 0.6823 0.0000
vn -0.6728 0.0000 0.7398
vn 0.6823 0.0000 -0.7311
vn 0.0000 0.6728 0.7398
vn 0.0000 -0.6823 -0.7311
vn 0.6728 0.0000 0.7398
vn -0.6823 0.0000 -0.7311
vn 0.0000 -0.6728 0.7398
vn 0.0000 0.6823 -0.7311
vn -0.7398 0.0000 -0.6728
vn 0.7311 0.0000 0.6823
vn -0.7398 0.6728 0.0000
vn 0.7311 -0.6823 0.0000
vn -0.7398 0.0000 0.6728
vn 0.7311 0.0000 -0.6823
vn -0.7398 -0.6728 0.0000
vn 0.7311 0.6823 0.0000
vn 0.6728 0.0000 -0.7398
vn -0.6823 0.0000 0.7311
vn 0.0000 0.6728 -0.7398
vn 0.0000 -0.6823 0.7311
vn -0.6728 0.0000 -0.7398
vn 0.6823 0.0000 0.7311
vn 0.0000 -0.6728 -0.7398
vn 0.0000 0.6823 0.7311
vn 0.0000 0.7398 -0.6728
vn 0.0000 -0.7311 0.6823
vn 0.6728 0.7398 0.0000
vn -0.6823 -0.7311 0.0000
vn 0.0000 0.7398 0.6728
vn 0.0000 -0.7311 -0.6823
vn -0.6728 0.7398 0.0000
vn 0.6823 -0.7311 0.0000
vn 0.0000 -0.7398 -0.6728
vn 0.0000 0.7311 0.6823
vn -0.6728 -0.7398 0.0000
vn 0.6823 0.7311 0.0000
vn 0.0000 -0.7398 0.6728
vn 0.0000 0.7311 -0.6823
vn 0.6728 -0.7398 0.0000
vn -0.6823 0.7311 0.0000
usemtl Material
s off
f 45//14 46//14 31//14 29//14
f 46//15 45//15 30//15 32//15
f 46//16 47//16 35//16 31//16
f 47//17 46//17 32//17 36//17
f 47//18 48//18 33//18 35//18
f 48//19 47//19 36//19 34//19
f 48//20 45//20 29//20 33//20
f 45//21 48//21 34//21 30//21
f 49//22 50//22 35//22 33//22
f 50//23 49//23 34//23 36//23
f 50//24 51//24 43//24 35//24
f 51//25 50//25 36//25 44//25
f 51//26 52//26 41//26 43//26
f 52//27 51//27 44//27 42//27
f 52//28 49//28 33//28 41//28
f 49//29 52//29 42//29 34//29
f 53//30 54//30 43//30 41//30
f 54//31 53//31 42//31 44//31
f 54//32 55//32 39//32 43//32
f 55//33 54//33 44//33 40//33
f 55//34 56//34 37//34 39//34
f 56//35 55//35 40//35 38//35
f 56//36 53//36 41//36 37//36
f 53//37 56//37 38//37 42//37
f 57//38 58//38 39//38 37//38
f 58//39 57//39 38//39 40//39
f 58//40 59//40 31//40 39//40
f 59//41 58//41 40//41 32//41
f 59//42 60//42 29//42 31//42
f 60//43 59//43 32//43 30//43
f 60//44 57//44 37//44 29//44
f 57//45 60//45 30//45 38//45
f 61//46 62//46 41//46 33//46
f 62//47 61//47 34//47 42//47
f 62//48 63//48 37//48 41//48
f 63//49 62//49 42//49 38//49
f 63//50 64//50 29//50 37//50
f 64//51 63//51 38//51 30//51
f 64//52 61//52 33//52 29//52
f 61//53 64//53 30//53 34//53
f 65//54 66//54 35//54 43//54
f 66//55 65//55 44//55 36//55
f 66//56 67//56 31//56 35//56
f 67//57 66//57 36//57 32//57
f 67//58 68//58 39//58 31//58
f 68//59 67//59 32//59 40//59
f 68//60 65//60 43//60 39//60
f 65//61 68//61 40//61 44//61
